<?xml version="1.0" encoding="utf-8"?>
<!-- Generator: Adobe Illustrator 21.0.2, SVG Export Plug-In . SVG Version: 6.00 Build 0)  -->
<svg version="1.1" xmlns="http://www.w3.org/2000/svg" xmlns:xlink="http://www.w3.org/1999/xlink" x="0px" y="0px"
	 viewBox="0 0 154.7 50" style="enable-background:new 0 0 154.7 50;" xml:space="preserve">
<style type="text/css">
	.st0{fill:#F9F9F9;}
	.st1{fill:#FAFAFA;}
	.st2{fill:#FFFFFF;stroke:#BDDCEE;stroke-width:0.5;stroke-miterlimit:10;}
	.st3{fill:#191819;}
	.st4{fill:#1966AA;}
	.st5{fill:#FFFFFF;stroke:#DADADA;stroke-width:0.25;stroke-miterlimit:10;}
	.st6{clip-path:url(#SVGID_2_);}
	.st7{clip-path:url(#SVGID_4_);fill:#73CB6C;}
	.st8{clip-path:url(#SVGID_6_);}
	.st9{clip-path:url(#SVGID_8_);fill:#73CB6C;}
	.st10{clip-path:url(#SVGID_10_);}
	.st11{clip-path:url(#SVGID_12_);fill:#73CB6C;}
	.st12{clip-path:url(#SVGID_14_);}
	.st13{clip-path:url(#SVGID_16_);fill:#6BBE7E;}
	.st14{fill:none;stroke:#DADADA;stroke-width:0.25;stroke-miterlimit:10;}
	.st15{clip-path:url(#SVGID_18_);}
	.st16{clip-path:url(#SVGID_22_);}
	.st17{clip-path:url(#SVGID_26_);}
	.st18{clip-path:url(#SVGID_30_);}
	.st19{clip-path:url(#SVGID_34_);}
	.st20{clip-path:url(#SVGID_38_);}
	.st21{clip-path:url(#SVGID_42_);}
	.st22{clip-path:url(#SVGID_46_);}
	.st23{clip-path:url(#SVGID_50_);}
	.st24{fill:#134B95;}
	.st25{fill:#08B25C;}
	.st26{fill:#1A1A1A;}
	.st27{fill:#094FA4;}
	.st28{fill:#DADADA;}
	.st29{clip-path:url(#SVGID_54_);}
	.st30{fill:#2C4C92;}
	.st31{fill:#3C67A9;}
	.st32{fill:#558FC9;}
	.st33{fill:#78AED7;}
	.st34{fill:#9AC5E3;}
	.st35{fill:#BDDCEE;}
	.st36{fill:#2C4C92;stroke:#2C4C92;stroke-width:0.5;stroke-miterlimit:10;}
	.st37{clip-path:url(#SVGID_58_);}
	.st38{clip-path:url(#SVGID_60_);fill:#73CB6C;}
	.st39{clip-path:url(#SVGID_62_);}
	.st40{clip-path:url(#SVGID_64_);fill:#73CB6C;}
	.st41{clip-path:url(#SVGID_66_);}
	.st42{clip-path:url(#SVGID_68_);fill:#73CB6C;}
	.st43{clip-path:url(#SVGID_70_);}
	.st44{clip-path:url(#SVGID_72_);fill:#6BBE7E;}
	.st45{clip-path:url(#SVGID_74_);}
	.st46{clip-path:url(#SVGID_76_);fill:#73CB6C;}
	.st47{clip-path:url(#SVGID_78_);}
	.st48{clip-path:url(#SVGID_80_);fill:#73CB6C;}
	.st49{clip-path:url(#SVGID_82_);}
	.st50{clip-path:url(#SVGID_84_);fill:#73CB6C;}
	.st51{clip-path:url(#SVGID_86_);}
	.st52{clip-path:url(#SVGID_88_);fill:#6BBE7E;}
	.st53{clip-path:url(#SVGID_90_);}
	.st54{clip-path:url(#SVGID_92_);fill:#73CB6C;}
	.st55{clip-path:url(#SVGID_94_);}
	.st56{clip-path:url(#SVGID_96_);fill:#73CB6C;}
	.st57{clip-path:url(#SVGID_98_);}
	.st58{clip-path:url(#SVGID_100_);fill:#73CB6C;}
	.st59{clip-path:url(#SVGID_102_);}
	.st60{clip-path:url(#SVGID_104_);fill:#6BBE7E;}
	.st61{clip-path:url(#SVGID_106_);}
	.st62{clip-path:url(#SVGID_108_);fill:#73CB6C;}
	.st63{clip-path:url(#SVGID_110_);}
	.st64{clip-path:url(#SVGID_112_);fill:#73CB6C;}
	.st65{clip-path:url(#SVGID_114_);}
	.st66{clip-path:url(#SVGID_116_);fill:#73CB6C;}
	.st67{clip-path:url(#SVGID_118_);}
	.st68{clip-path:url(#SVGID_120_);fill:#6BBE7E;}
	.st69{fill:#2F509F;}
	.st70{display:none;}
	.st71{display:inline;}
	.st72{opacity:0.1;fill:#6098C9;}
</style>
<g id="BG">
</g>
<g id="content">
</g>
<g id="footer">
</g>
<g id="title">
</g>
<g id="header">
</g>
<g id="BBVA">
	<g>
		<g id="XMLID_148_">
			<g id="XMLID_149_">
				<rect id="XMLID_156_" class="st30" width="7.1" height="7.1"/>
				<rect id="XMLID_155_" y="7.1" class="st31" width="7.1" height="7.1"/>
				<rect id="XMLID_154_" y="14.3" class="st32" width="7.1" height="7.1"/>
				<rect id="XMLID_153_" y="21.4" class="st33" width="7.1" height="7.1"/>
				<rect id="XMLID_152_" y="28.6" class="st34" width="7.1" height="7.1"/>
				<rect id="XMLID_151_" y="35.7" class="st35" width="7.1" height="7.1"/>
				<rect id="XMLID_150_" y="42.8" class="st35" width="7.1" height="7.1"/>
			</g>
		</g>
		<g id="XMLID_119_">
			<path id="XMLID_144_" class="st30" d="M69.2,28.6V14.6v-0.2h4.1c0.7,0,1.4,0.1,2,0.2c0.6,0.1,1.1,0.4,1.6,0.8
				c0.3,0.2,0.5,0.5,0.7,0.9c0.2,0.5,0.4,1.1,0.4,1.7c0,0.7-0.2,1.3-0.4,1.8c-0.3,0.5-0.7,0.8-1.2,1.1C76.2,21,76.1,21,76,21.1
				c0.2,0.1,0.5,0.2,0.7,0.3c0.4,0.2,0.8,0.5,1.1,0.8c0.2,0.2,0.4,0.5,0.5,0.9c0.2,0.4,0.3,0.9,0.3,1.5c0,0.8-0.2,1.4-0.5,2
				c-0.3,0.6-0.7,1-1.3,1.3c-0.4,0.2-0.8,0.4-1.2,0.5c-0.6,0.2-1.2,0.2-2,0.2H69.2z M73.6,27.2c0.6,0,1.1-0.1,1.5-0.2
				c0.4-0.1,0.8-0.3,1.1-0.6c0.2-0.2,0.4-0.4,0.5-0.6c0.2-0.3,0.2-0.7,0.2-1.2c0-0.6-0.1-1-0.3-1.4c-0.2-0.4-0.5-0.6-0.9-0.8
				c-0.3-0.1-0.5-0.3-0.9-0.3c-0.5-0.1-1-0.2-1.6-0.2h-2.6v5.4H73.6z M73.3,20.5c0.5,0,1-0.1,1.4-0.2c0.4-0.1,0.8-0.3,1-0.5
				c0.2-0.2,0.3-0.3,0.4-0.6c0.2-0.3,0.2-0.7,0.2-1.1c0-0.5-0.1-0.9-0.3-1.2c-0.2-0.3-0.4-0.5-0.8-0.7c-0.2-0.1-0.5-0.2-0.8-0.3
				c-0.4-0.1-0.8-0.1-1.2-0.1h-2.6v4.7H73.3z"/>
			<path id="XMLID_141_" class="st30" d="M88,19.5c-0.1-0.3-0.3-0.6-0.5-0.8c-0.3-0.3-0.7-0.6-1.2-0.7c-0.5-0.1-1-0.2-1.6-0.2
				c-2,0-3.2,0.6-3.9,1c0.5,1.2,1.1,0.9,1.9,0.6c0.6-0.2,1.2-0.4,1.9-0.4c0.3,0,0.7,0.1,1,0.1c0.2,0.1,0.4,0.1,0.5,0.2
				c0.2,0.2,0.4,0.3,0.6,0.6c0.1,0.2,0.2,0.6,0.2,1v1.5c-0.8-0.2-1.5-0.2-2.4-0.2c-0.6,0-1.2,0.1-1.7,0.2c-0.4,0.1-0.7,0.2-1.1,0.4
				c-0.5,0.3-0.9,0.6-1.1,1.1c-0.3,0.5-0.4,1-0.4,1.6c0,0.5,0.1,1,0.3,1.4c0.3,0.6,0.7,1.1,1.3,1.4c0.6,0.3,1.2,0.5,2,0.5h0
				c0.9,0,1.6-0.2,2.1-0.4c0.4-0.2,0.8-0.4,1.1-0.7c0,0.1,0,0.3,0,0.4c0,0.1,0,0.2,0.1,0.3c0,0.1,0.1,0.1,0.1,0.2
				c0.1,0.1,0.2,0.1,0.3,0.2c0.1,0,0.2,0,0.4,0h0.5v-7.7C88.2,20.4,88.2,19.9,88,19.5 M86.8,25.9c-0.4,0.4-0.8,0.8-1.2,1.1
				c-0.5,0.3-1.1,0.4-1.9,0.4c-0.3,0-0.6,0-0.9-0.1c-0.2-0.1-0.4-0.1-0.5-0.2c-0.2-0.1-0.4-0.3-0.5-0.6c-0.1-0.3-0.2-0.6-0.2-1
				c0-0.4,0.1-0.6,0.2-0.9c0.1-0.2,0.2-0.3,0.4-0.5c0.2-0.2,0.6-0.3,1-0.4c0.4-0.1,0.8-0.1,1.3-0.1c0.9,0,1.6,0.1,2.4,0.3V25.9z"/>
			<path id="XMLID_140_" class="st30" d="M97.8,28.6v-7.7c0-0.4-0.1-0.8-0.2-1c-0.1-0.2-0.3-0.4-0.4-0.5c-0.1-0.1-0.3-0.1-0.4-0.2
				c-0.2-0.1-0.5-0.1-0.7-0.1c-0.7,0-1.4,0.2-2.1,0.5c-0.6,0.3-1.2,0.7-1.8,1.1v7.9h-1.5V17.9h0.7c0.1,0,0.1,0,0.2,0
				c0.1,0,0.1,0,0.2,0.1c0,0,0.1,0.1,0.1,0.1c0.1,0.1,0.1,0.1,0.1,0.2c0,0.1,0.1,0.2,0.1,0.3c0,0.2,0,0.3,0,0.6v0.1
				c0.5-0.4,1-0.7,1.6-0.9c0.8-0.3,1.6-0.5,2.6-0.5c0.4,0,0.8,0,1.2,0.2c0.4,0.1,0.7,0.3,1,0.6c0.2,0.2,0.3,0.5,0.4,0.7
				c0.2,0.4,0.2,0.9,0.2,1.4v7.8H97.8z"/>
			<path id="XMLID_137_" class="st30" d="M112.6,27.8c-0.8-0.5-1.4-1.3-1.7-2.3c-0.2-0.7-0.4-1.4-0.4-2.2c0-1.2,0.3-2.3,0.8-3.2
				c0.5-0.9,1.3-1.5,2.2-1.9c0.6-0.2,1.3-0.4,2-0.4c1.1,0,2.1,0.3,2.9,0.8c0.8,0.5,1.4,1.3,1.7,2.3c0.2,0.7,0.3,1.4,0.3,2.2
				c0,1.2-0.3,2.3-0.8,3.2c-0.5,0.9-1.3,1.5-2.2,1.9c-0.6,0.2-1.3,0.4-2,0.4C114.3,28.7,113.3,28.4,112.6,27.8 M113.4,19.7
				c-0.5,0.4-0.9,1-1.2,1.8c-0.2,0.5-0.2,1.1-0.2,1.8c0,1,0.2,1.9,0.5,2.5c0.4,0.6,0.9,1.1,1.5,1.4c0.4,0.2,0.9,0.3,1.5,0.3
				c0.8,0,1.5-0.2,2.1-0.6c0.5-0.4,0.9-1,1.2-1.8c0.2-0.5,0.2-1.1,0.2-1.8c0-1-0.2-1.8-0.5-2.5c-0.3-0.7-0.8-1.1-1.5-1.4
				c-0.4-0.2-0.9-0.3-1.5-0.3C114.6,19.1,113.9,19.3,113.4,19.7"/>
			<path id="XMLID_136_" class="st30" d="M135.2,28.6v-7.8c0-0.4-0.1-0.7-0.1-0.9c-0.1-0.2-0.2-0.4-0.4-0.5
				c-0.1-0.1-0.2-0.1-0.4-0.2c-0.2-0.1-0.4-0.1-0.7-0.1c-0.7,0-1.3,0.2-1.9,0.5c-0.5,0.3-1.1,0.6-1.5,1v8h-1.5v-7.8
				c0-0.4-0.1-0.7-0.2-0.9c-0.1-0.2-0.2-0.4-0.4-0.5c-0.1-0.1-0.2-0.1-0.4-0.2c-0.2-0.1-0.4-0.1-0.7-0.1c-0.7,0-1.3,0.2-1.9,0.5
				c-0.5,0.3-1.1,0.6-1.6,1v7.9h-1.5V17.9h0.7c0.1,0,0.1,0,0.2,0c0.1,0,0.1,0,0.2,0.1c0,0,0.1,0.1,0.1,0.1c0.1,0.1,0.1,0.1,0.1,0.2
				c0,0.1,0.1,0.2,0.1,0.3c0,0.2,0,0.3,0,0.6v0c0.4-0.3,0.9-0.6,1.4-0.8c0.7-0.3,1.5-0.6,2.4-0.6c0.4,0,0.9,0.1,1.3,0.2
				c0.4,0.2,0.7,0.4,1,0.8c0.1,0.1,0.2,0.3,0.3,0.5c0.5-0.4,1-0.7,1.6-1c0.7-0.3,1.5-0.5,2.4-0.5c0.4,0,0.8,0.1,1.2,0.2
				c0.4,0.1,0.7,0.3,0.9,0.6c0.2,0.2,0.3,0.4,0.4,0.7c0.1,0.4,0.2,0.8,0.2,1.2v8H135.2z"/>
			<path id="XMLID_133_" class="st30" d="M55.2,23.4l1.9-6.5l2,6.5H55.2z M60.2,15.8c-0.4-1.2-0.6-1.4-1.7-1.4h-2.7l-4.3,14.2h2.2
				l0.9-3.1h5.2l0.9,3.1h3.8L60.2,15.8z"/>
			<path id="XMLID_130_" class="st30" d="M34.1,26.7V16.2H36c0.9,0,1.6,0.7,1.6,1.6c0,0.3-0.1,0.6-0.4,1l-1.2,1.8
				c1.2,0.3,2.1,1.2,2.1,3c0,2.1-1.3,3-3,3H34.1z M38.7,20l0.7-1c1.5-2.2,0.5-4.5-2.4-4.5h-6.2v14.2h6C42,28.6,43.6,22.5,38.7,20"/>
			<path id="XMLID_127_" class="st30" d="M23.2,26.7h-1V16.2H24c0.9,0,1.6,0.7,1.6,1.6c0,0.3-0.1,0.6-0.4,1l-1.2,1.8
				c1.2,0.3,2.1,1.2,2.1,3C26.1,25.8,24.8,26.7,23.2,26.7 M26.7,20l0.7-1c1.5-2.2,0.5-4.5-2.4-4.5h-6.2v14.2h6
				C30,28.6,31.6,22.5,26.7,20"/>
			<path id="XMLID_126_" class="st30" d="M45,16.2c-0.5-1.6-0.8-1.8-1.7-1.8h-2.5l4.6,14.2h3.4l4.3-14.2h-2.2l-3.2,10.8L45,16.2z"/>
			<path id="XMLID_124_" class="st30" d="M109.4,18.9c-0.5,1.2-1.1,0.8-1.8,0.5c-0.4-0.2-0.9-0.3-1.6-0.3c-0.8,0-1.5,0.2-2.1,0.6
				c-0.6,0.4-1,1-1.2,1.7c-0.2,0.5-0.3,1.1-0.3,1.8c0,0.8,0.1,1.4,0.3,2c0.2,0.6,0.5,1,0.9,1.4c0.3,0.2,0.5,0.4,0.9,0.5
				c0.4,0.2,0.9,0.3,1.5,0.3c0.8,0,1.3-0.2,1.8-0.4c0.7-0.4,1.2-0.8,1.9,0.3c-0.3,0.3-0.7,0.6-1.2,0.8c-0.1,0-0.1,0.1-0.2,0.1
				c-0.6,0.2-1.3,0.4-2.3,0.4h0c-1.2,0-2.1-0.3-2.9-0.8c-0.8-0.6-1.4-1.4-1.7-2.4c-0.2-0.7-0.3-1.4-0.3-2.2c0-1.2,0.3-2.3,0.8-3.2
				c0.5-0.9,1.3-1.5,2.2-1.9c0.6-0.2,1.3-0.4,2-0.4C106.4,17.8,107.9,17.7,109.4,18.9"/>
			<path id="XMLID_121_" class="st30" d="M147.2,20.6c-0.2-0.5-0.4-0.9-0.6-1.2c-0.4-0.5-0.9-0.9-1.5-1.2c-0.6-0.2-1.3-0.4-2-0.4
				c-0.7,0-1.3,0.1-1.9,0.4c-0.9,0.4-1.6,1-2.1,1.9c-0.5,0.9-0.8,1.9-0.8,3.2c0,0.8,0.1,1.5,0.3,2.2c0.3,1,0.9,1.8,1.7,2.3
				c0.8,0.5,1.8,0.8,3,0.8h0c0.9,0,1.7-0.2,2.4-0.4c1-0.4,1.5-0.8,1.8-1.1c-0.7-1-1.1-0.6-1.9-0.2c-0.5,0.2-1.4,0.4-2.2,0.4
				c-0.6,0-1.1-0.1-1.6-0.3c-0.3-0.1-0.6-0.3-0.9-0.5c-0.4-0.3-0.7-0.8-0.9-1.3c-0.2-0.5-0.3-1.1-0.3-1.7h7.7v-0.2v-0.1
				c0-0.1,0-0.3,0-0.4C147.5,21.9,147.4,21.2,147.2,20.6 M139.9,22.3c0.1-0.5,0.2-0.9,0.3-1.3c0.3-0.7,0.7-1.1,1.2-1.5
				c0.5-0.3,1.1-0.5,1.7-0.5c0.4,0,0.9,0.1,1.2,0.2c0.3,0.1,0.5,0.2,0.7,0.4c0.3,0.3,0.6,0.6,0.7,1.1c0.2,0.4,0.3,0.9,0.3,1.6H139.9
				z"/>
			<path id="XMLID_120_" class="st30" d="M153.8,17.8c-0.8,0-1.5,0.2-2.1,0.6c-0.4,0.2-0.7,0.5-1,0.8c0-0.3,0-0.5,0-0.6
				c0-0.1,0-0.2-0.1-0.3c0-0.1-0.1-0.1-0.1-0.2c0,0-0.1-0.1-0.1-0.1c-0.1,0-0.1-0.1-0.2-0.1c-0.1,0-0.1,0-0.2,0h-0.7v10.7h1.5v-7.6
				c0.5-0.6,1-1,1.3-1.2c0,0,0,0,0,0c0.6-0.4,1.1-0.5,1.4-0.5c0.7-0.1,1.1-0.2,1.2-1.2C154.4,17.9,154.1,17.8,153.8,17.8"/>
		</g>
		<g id="XMLID_118_">
			<path class="st36" d="M19.4,42.1v-0.2h0.2c0.5,0.4,1.2,0.9,2.7,0.9c1.5,0,2.7-0.6,2.7-2.4c0-1.6-1.4-1.9-2.8-2.3
				c-1.3-0.4-2.6-0.7-2.6-2.4c0-1.2,0.8-2.2,2.7-2.2c1.2,0,1.9,0.3,2.5,0.8v0.2h-0.2c-0.5-0.5-1.1-0.8-2.3-0.8c-1.7,0-2.4,0.9-2.4,2
				c0,1.5,1.1,1.8,2.4,2.2c1.5,0.4,3,0.8,3,2.5c0,1.8-1.3,2.6-2.9,2.6C20.8,43,20.1,42.6,19.4,42.1z"/>
			<path class="st36" d="M29.7,42.8c1.2,0,1.9-0.4,2.3-0.8h0.2v0.2c-0.5,0.4-1.3,0.8-2.5,0.8c-2.1,0-3.2-1.3-3.2-3.5
				c0-2.2,1.3-3.6,3-3.6c1.6,0,2.8,0.9,2.8,3.2c0,0.1,0,0.2,0,0.2h-5.5v0.2C26.7,41.5,27.7,42.8,29.7,42.8z M26.7,39H32
				c0-2.1-1.1-3-2.5-3C28,36.1,26.9,37.2,26.7,39z"/>
			<path class="st36" d="M39.1,43c0,1.6-1.4,2.2-2.7,2.2c-1.2,0-2.1-0.3-2.6-0.6v-0.2h0.2c0.4,0.4,1.3,0.7,2.4,0.7
				c1.2,0,2.5-0.5,2.5-2v-1.5C38.3,42.3,37.3,43,36,43c-1.3,0-2.7-0.8-2.7-3.5c0-2.8,1.6-3.6,3-3.6c1.2,0,2,0.4,2.5,1.1v-0.7
				c0-0.3,0-0.4,0.2-0.4h0.1V43z M38.8,41.1v-3.9c-0.6-0.8-1.4-1.2-2.5-1.2c-1.3,0-2.7,0.7-2.7,3.4c0,2.6,1.3,3.3,2.5,3.3
				C37.3,42.8,38.2,42.1,38.8,41.1z"/>
			<path class="st36" d="M46.1,41.6c-0.8,0.7-2,1.4-3.2,1.4c-1,0-1.8-0.3-1.8-1.7v-5.3h0.3v5.3c0,1.3,0.7,1.5,1.5,1.5
				c1.1,0,2.2-0.6,3.2-1.4v-5.5h0.3v7h-0.1c-0.1,0-0.2-0.1-0.2-0.3V41.6z"/>
			<path class="st36" d="M48.8,37.4c0.6-0.8,1.3-1.5,2.4-1.5c0.2,0,0.3,0,0.3,0v0.2c0,0-0.1,0-0.3,0c-1,0-1.8,0.7-2.4,1.6v5.2h-0.3
				v-7h0.1c0.2,0,0.2,0,0.2,0.4V37.4z"/>
			<path class="st36" d="M52.1,39.4c0-2.2,1.2-3.6,3.2-3.6c1.9,0,3.2,1.4,3.2,3.6c0,2.2-1.2,3.6-3.2,3.6
				C53.3,43,52.1,41.6,52.1,39.4z M58.1,39.4c0-2.1-1.1-3.3-2.9-3.3c-1.8,0-2.9,1.3-2.9,3.3c0,2.1,1.1,3.3,2.9,3.3
				C57,42.8,58.1,41.5,58.1,39.4z"/>
			<path class="st36" d="M59.3,42.3v-0.2h0.2c0.3,0.3,0.9,0.7,2.1,0.7c1.5,0,2.2-0.6,2.2-1.8c0-1-0.7-1.3-2.1-1.6
				c-1.3-0.2-2.2-0.6-2.2-1.8c0-1.1,0.8-1.8,2.2-1.8c0.9,0,1.7,0.3,2,0.6v0.2h-0.2c-0.4-0.3-0.9-0.6-1.8-0.6c-1.3,0-2,0.6-2,1.6
				c0,1,0.7,1.3,2,1.5c1.4,0.2,2.2,0.6,2.2,1.8c0,1.3-0.8,2-2.4,2C60.3,43,59.6,42.6,59.3,42.3z"/>
		</g>
	</g>
</g>
<g id="SALUD">
</g>
<g id="Capa_2" class="st70">
</g>
<g id="Capa_8" class="st70">
</g>
<g id="Capa_3" class="st70">
</g>
</svg>
