<?xml version="1.0" encoding="utf-8"?>
<!-- Generator: Adobe Illustrator 21.0.2, SVG Export Plug-In . SVG Version: 6.00 Build 0)  -->
<svg version="1.1" xmlns="http://www.w3.org/2000/svg" xmlns:xlink="http://www.w3.org/1999/xlink" x="0px" y="0px"
	 viewBox="0 0 154.7 50" style="enable-background:new 0 0 154.7 50;" xml:space="preserve">
<style type="text/css">
	.st0{fill:#F9F9F9;}
	.st1{fill:#FAFAFA;}
	.st2{fill:#FFFFFF;stroke:#BDDCEE;stroke-width:0.5;stroke-miterlimit:10;}
	.st3{fill:#191819;}
	.st4{fill:#1966AA;}
	.st5{fill:#FFFFFF;stroke:#DADADA;stroke-width:0.25;stroke-miterlimit:10;}
	.st6{clip-path:url(#SVGID_2_);}
	.st7{clip-path:url(#SVGID_4_);fill:#73CB6C;}
	.st8{clip-path:url(#SVGID_6_);}
	.st9{clip-path:url(#SVGID_8_);fill:#73CB6C;}
	.st10{clip-path:url(#SVGID_10_);}
	.st11{clip-path:url(#SVGID_12_);fill:#73CB6C;}
	.st12{clip-path:url(#SVGID_14_);}
	.st13{clip-path:url(#SVGID_16_);fill:#6BBE7E;}
	.st14{fill:none;stroke:#DADADA;stroke-width:0.25;stroke-miterlimit:10;}
	.st15{clip-path:url(#SVGID_18_);}
	.st16{clip-path:url(#SVGID_22_);}
	.st17{clip-path:url(#SVGID_26_);}
	.st18{clip-path:url(#SVGID_30_);}
	.st19{clip-path:url(#SVGID_34_);}
	.st20{clip-path:url(#SVGID_38_);}
	.st21{clip-path:url(#SVGID_42_);}
	.st22{clip-path:url(#SVGID_46_);}
	.st23{clip-path:url(#SVGID_50_);}
	.st24{fill:#134B95;}
	.st25{fill:#08B25C;}
	.st26{fill:#1A1A1A;}
	.st27{fill:#094FA4;}
	.st28{fill:#DADADA;}
	.st29{clip-path:url(#SVGID_54_);}
	.st30{fill:#2C4C92;}
	.st31{fill:#3C67A9;}
	.st32{fill:#558FC9;}
	.st33{fill:#78AED7;}
	.st34{fill:#9AC5E3;}
	.st35{fill:#BDDCEE;}
	.st36{fill:#2C4C92;stroke:#2C4C92;stroke-width:0.5;stroke-miterlimit:10;}
	.st37{clip-path:url(#SVGID_58_);}
	.st38{clip-path:url(#SVGID_60_);fill:#73CB6C;}
	.st39{clip-path:url(#SVGID_62_);}
	.st40{clip-path:url(#SVGID_64_);fill:#73CB6C;}
	.st41{clip-path:url(#SVGID_66_);}
	.st42{clip-path:url(#SVGID_68_);fill:#73CB6C;}
	.st43{clip-path:url(#SVGID_70_);}
	.st44{clip-path:url(#SVGID_72_);fill:#6BBE7E;}
	.st45{clip-path:url(#SVGID_74_);}
	.st46{clip-path:url(#SVGID_76_);fill:#73CB6C;}
	.st47{clip-path:url(#SVGID_78_);}
	.st48{clip-path:url(#SVGID_80_);fill:#73CB6C;}
	.st49{clip-path:url(#SVGID_82_);}
	.st50{clip-path:url(#SVGID_84_);fill:#73CB6C;}
	.st51{clip-path:url(#SVGID_86_);}
	.st52{clip-path:url(#SVGID_88_);fill:#6BBE7E;}
	.st53{clip-path:url(#SVGID_90_);}
	.st54{clip-path:url(#SVGID_92_);fill:#73CB6C;}
	.st55{clip-path:url(#SVGID_94_);}
	.st56{clip-path:url(#SVGID_96_);fill:#73CB6C;}
	.st57{clip-path:url(#SVGID_98_);}
	.st58{clip-path:url(#SVGID_100_);fill:#73CB6C;}
	.st59{clip-path:url(#SVGID_102_);}
	.st60{clip-path:url(#SVGID_104_);fill:#6BBE7E;}
	.st61{clip-path:url(#SVGID_106_);}
	.st62{clip-path:url(#SVGID_108_);fill:#73CB6C;}
	.st63{clip-path:url(#SVGID_110_);}
	.st64{clip-path:url(#SVGID_112_);fill:#73CB6C;}
	.st65{clip-path:url(#SVGID_114_);}
	.st66{clip-path:url(#SVGID_116_);fill:#73CB6C;}
	.st67{clip-path:url(#SVGID_118_);}
	.st68{clip-path:url(#SVGID_120_);fill:#6BBE7E;}
	.st69{fill:#2F509F;}
	.st70{display:none;}
	.st71{display:inline;}
	.st72{opacity:0.1;fill:#6098C9;}
</style>
<g id="BG">
</g>
<g id="content">
</g>
<g id="footer">
</g>
<g id="title">
</g>
<g id="header">
</g>
<g id="BBVA">
	<g>
		<g>
			<defs>
				<path id="SVGID_105_" d="M38.4-61.2c-3.2,3.7-5.8,8.7-6.9,8.6c-1.1-0.1-1.4-2.7-3.6-5.7c-2.5-3.3-6.3-0.2-8.3,3.5
					c-2.1,3.7-2.6,4.6-3.5,4.6c-0.9,0-2.8-3.3-4-5.3c-4.6-7.4-9.7-9.9-9.4-1.6c0.3,6.8,5.7,20,10.8,20c7.2,0,8.6-8.6,10.3-8.6
					c1.7,0,3.5,7.4,7.7,7.4c4.2,0,10.7-10.2,12.9-15.9C46.5-59.7,41.6-65,38.4-61.2z M50.7-60c-1.6,3.5-2,6.8-1.8,10.8
					c0.1,2.8,0.2,14.6,5.7,11.5c3.3-1.9,3.6-9.7,3.7-13.5c0-3.3-0.3-6.8-1.3-8.9C55.4-63.2,52.1-63.2,50.7-60z M105.3-43.3
					c-3.8,0.3-5.5-0.5-6.6-1.7c-0.6-0.7-0.2-1.2,0-1.3c0.3-0.1,1-0.2,1-0.2c3.1-0.2,4.5-0.4,6.6-0.8c3.9-0.9,7.4-4.4,6.1-8.9
					c-1.3-4.5-6.5-7-11.8-6c-5.6,1-8.2,5.1-9.5,9.2c-1.4,4.1-0.6,8.6,2.1,12c3.2,4.2,10.5,4.8,15.2,2.4c1.6-0.8,2.8-2,2.5-3.7
					C110.6-43.9,109.6-43.7,105.3-43.3z M99.1-51.8c-0.5,0-0.6-0.3-0.5-0.5c0.3-1,0.8-1.8,2.2-2.4c1.2-0.6,2.5-0.7,3.9-0.5
					c1.1,0.2,2.3,1.2,1.1,2C104.8-52.5,100.9-52.1,99.1-51.8L99.1-51.8z"/>
			</defs>
			<clipPath id="SVGID_2_">
				<use xlink:href="#SVGID_105_"  style="overflow:visible;"/>
			</clipPath>
			<g class="st6">
				<defs>
					<rect id="SVGID_107_" x="-16.2" y="-90.7" width="1200" height="1277"/>
				</defs>
				<clipPath id="SVGID_4_">
					<use xlink:href="#SVGID_107_"  style="overflow:visible;"/>
				</clipPath>
			</g>
		</g>
		<g>
			<defs>
				<path id="SVGID_109_" d="M50.5-70.9c0,2.2,2.3,4.7,4.5,4.5c2.8-0.2,3.5-4,1.8-6C55.2-74.2,50.5-74.1,50.5-70.9"/>
			</defs>
			<clipPath id="SVGID_6_">
				<use xlink:href="#SVGID_109_"  style="overflow:visible;"/>
			</clipPath>
			<g class="st8">
				<defs>
					<rect id="SVGID_111_" x="-16.2" y="-90.7" width="1200" height="1277"/>
				</defs>
				<clipPath id="SVGID_8_">
					<use xlink:href="#SVGID_111_"  style="overflow:visible;"/>
				</clipPath>
			</g>
		</g>
		<g>
			<defs>
				<path id="SVGID_113_" d="M86.4-60.6c-1.2-1.6-3.9-1.8-5.6-1.8c-3.9-0.1-6.8,0.8-8.9,1.4c-0.6,0-0.8-0.3-0.8-0.6
					c0.7-2.2,2.2-8.3-0.9-11.1c-2.3-2.1-4.7,0.4-5.1,2.2c-0.3,1.1-1.1,3.1-1.7,9.4c-0.6,6.3-1.5,12.7,0.1,16.8
					c1.1,2.8,3.2,6.8,9.3,6.8c7.7,0,11.6-4.8,10.7-8c0,0,0,0,0,0c-0.2-0.4,0.2-0.7,0.2-0.7c2.9-2.1,2.7-5.6,2-7.2c0,0,0,0,0,0
					c-0.1-0.5,0.2-0.8,0.2-0.8h0C87.4-55.4,88.5-57.9,86.4-60.6"/>
			</defs>
			<clipPath id="SVGID_10_">
				<use xlink:href="#SVGID_113_"  style="overflow:visible;"/>
			</clipPath>
			<g class="st10">
				<defs>
					<rect id="SVGID_115_" x="-16.2" y="-90.7" width="1200" height="1277"/>
				</defs>
				<clipPath id="SVGID_12_">
					<use xlink:href="#SVGID_115_"  style="overflow:visible;"/>
				</clipPath>
			</g>
		</g>
		<g>
			<defs>
				<path id="SVGID_117_" d="M86.4-60.6c-1.2-1.6-3.9-1.8-5.6-1.8c-0.9,0-1.7,0-2.5,0.1c-1.3,1.5-1.4,2.5-1.4,3.3
					c0,1.1,1.4,2.9,1.1,3.9c-0.3,1-2.2,1.9-2.7,4.1c-0.3,1.2,1.6,2.2,1.1,4.2c-0.3,1.5-2.2,2.8-2.5,4.3c-0.3,1.6,1.7,3.2,1.4,4.9
					c6-0.9,9-5,8.2-7.9c0,0,0,0,0,0c-0.2-0.4,0.2-0.7,0.2-0.7c2.9-2.1,2.7-5.6,2-7.2c0,0,0,0,0,0c-0.1-0.5,0.2-0.8,0.2-0.8h0
					C87.3-55.4,88.4-57.9,86.4-60.6"/>
			</defs>
			<clipPath id="SVGID_14_">
				<use xlink:href="#SVGID_117_"  style="overflow:visible;"/>
			</clipPath>
			<g class="st12">
				<defs>
					<rect id="SVGID_119_" x="-16.2" y="-90.7" width="1200" height="1277"/>
				</defs>
				<clipPath id="SVGID_16_">
					<use xlink:href="#SVGID_119_"  style="overflow:visible;"/>
				</clipPath>
			</g>
		</g>
	</g>
</g>
<g id="SALUD">
	<g>
		<g id="XMLID_377_">
			<g id="XMLID_378_">
				<rect id="XMLID_385_" class="st30" width="7.1" height="7.1"/>
				<rect id="XMLID_384_" y="7.1" class="st31" width="7.1" height="7.1"/>
				<rect id="XMLID_383_" y="14.3" class="st32" width="7.1" height="7.1"/>
				<rect id="XMLID_382_" y="21.4" class="st33" width="7.1" height="7.1"/>
				<rect id="XMLID_381_" y="28.6" class="st34" width="7.1" height="7.1"/>
				<rect id="XMLID_380_" y="35.7" class="st35" width="7.1" height="7.1"/>
				<rect id="XMLID_379_" y="42.8" class="st35" width="7.1" height="7.1"/>
			</g>
		</g>
		<g id="XMLID_348_">
			<path id="XMLID_373_" class="st30" d="M69.2,28.6V14.6v-0.2h4.1c0.7,0,1.4,0.1,2,0.2c0.6,0.1,1.1,0.4,1.6,0.8
				c0.3,0.2,0.5,0.5,0.7,0.9c0.2,0.5,0.4,1.1,0.4,1.7c0,0.7-0.2,1.3-0.4,1.8c-0.3,0.5-0.7,0.8-1.2,1.1C76.2,21,76.1,21,76,21.1
				c0.2,0.1,0.5,0.2,0.7,0.3c0.4,0.2,0.8,0.5,1.1,0.8c0.2,0.2,0.4,0.5,0.5,0.9c0.2,0.4,0.3,0.9,0.3,1.5c0,0.8-0.2,1.4-0.5,2
				c-0.3,0.6-0.7,1-1.3,1.3c-0.4,0.2-0.8,0.4-1.2,0.5c-0.6,0.2-1.2,0.2-2,0.2H69.2z M73.6,27.2c0.6,0,1.1-0.1,1.5-0.2
				c0.4-0.1,0.8-0.3,1.1-0.6c0.2-0.2,0.4-0.4,0.5-0.6c0.2-0.3,0.2-0.7,0.2-1.2c0-0.6-0.1-1-0.3-1.4c-0.2-0.4-0.5-0.6-0.9-0.8
				c-0.3-0.1-0.5-0.3-0.9-0.3c-0.5-0.1-1-0.2-1.6-0.2h-2.6v5.4H73.6z M73.3,20.5c0.5,0,1-0.1,1.4-0.2c0.4-0.1,0.8-0.3,1-0.5
				c0.2-0.2,0.3-0.3,0.4-0.6c0.2-0.3,0.2-0.7,0.2-1.1c0-0.5-0.1-0.9-0.3-1.2c-0.2-0.3-0.4-0.5-0.8-0.7c-0.2-0.1-0.5-0.2-0.8-0.3
				c-0.4-0.1-0.8-0.1-1.2-0.1h-2.6v4.7H73.3z"/>
			<path id="XMLID_370_" class="st30" d="M88,19.5c-0.1-0.3-0.3-0.6-0.5-0.8c-0.3-0.3-0.7-0.6-1.2-0.7c-0.5-0.1-1-0.2-1.6-0.2
				c-2,0-3.2,0.6-3.9,1c0.5,1.2,1.1,0.9,1.9,0.6c0.6-0.2,1.2-0.4,1.9-0.4c0.3,0,0.7,0.1,1,0.1c0.2,0.1,0.4,0.1,0.5,0.2
				c0.2,0.2,0.4,0.3,0.6,0.6c0.1,0.2,0.2,0.6,0.2,1v1.5c-0.8-0.2-1.5-0.2-2.4-0.2c-0.6,0-1.2,0.1-1.7,0.2c-0.4,0.1-0.7,0.2-1.1,0.4
				c-0.5,0.3-0.9,0.6-1.1,1.1c-0.3,0.5-0.4,1-0.4,1.6c0,0.5,0.1,1,0.3,1.4c0.3,0.6,0.7,1.1,1.3,1.4c0.6,0.3,1.2,0.5,2,0.5h0
				c0.9,0,1.6-0.2,2.1-0.4c0.4-0.2,0.8-0.4,1.1-0.7c0,0.1,0,0.3,0,0.4c0,0.1,0,0.2,0.1,0.3c0,0.1,0.1,0.1,0.1,0.2
				c0.1,0.1,0.2,0.1,0.3,0.2c0.1,0,0.2,0,0.4,0h0.5v-7.7C88.2,20.4,88.2,19.9,88,19.5 M86.8,25.9c-0.4,0.4-0.8,0.8-1.2,1.1
				c-0.5,0.3-1.1,0.4-1.9,0.4c-0.3,0-0.6,0-0.9-0.1c-0.2-0.1-0.4-0.1-0.5-0.2c-0.2-0.1-0.4-0.3-0.5-0.6c-0.1-0.3-0.2-0.6-0.2-1
				c0-0.4,0.1-0.6,0.2-0.9c0.1-0.2,0.2-0.3,0.4-0.5c0.2-0.2,0.6-0.3,1-0.4c0.4-0.1,0.8-0.1,1.3-0.1c0.9,0,1.6,0.1,2.4,0.3V25.9z"/>
			<path id="XMLID_369_" class="st30" d="M97.8,28.6v-7.7c0-0.4-0.1-0.8-0.2-1c-0.1-0.2-0.3-0.4-0.4-0.5c-0.1-0.1-0.3-0.1-0.4-0.2
				c-0.2-0.1-0.5-0.1-0.7-0.1c-0.7,0-1.4,0.2-2.1,0.5c-0.6,0.3-1.2,0.7-1.8,1.1v7.9h-1.5V17.9h0.7c0.1,0,0.1,0,0.2,0
				c0.1,0,0.1,0,0.2,0.1c0,0,0.1,0.1,0.1,0.1c0.1,0.1,0.1,0.1,0.1,0.2c0,0.1,0.1,0.2,0.1,0.3c0,0.2,0,0.3,0,0.6v0.1
				c0.5-0.4,1-0.7,1.6-0.9c0.8-0.3,1.6-0.5,2.6-0.5c0.4,0,0.8,0,1.2,0.2c0.4,0.1,0.7,0.3,1,0.6c0.2,0.2,0.3,0.5,0.4,0.7
				c0.2,0.4,0.2,0.9,0.2,1.4v7.8H97.8z"/>
			<path id="XMLID_366_" class="st30" d="M112.6,27.8c-0.8-0.5-1.4-1.3-1.7-2.3c-0.2-0.7-0.4-1.4-0.4-2.2c0-1.2,0.3-2.3,0.8-3.2
				c0.5-0.9,1.3-1.5,2.2-1.9c0.6-0.2,1.3-0.4,2-0.4c1.1,0,2.1,0.3,2.9,0.8c0.8,0.5,1.4,1.3,1.7,2.3c0.2,0.7,0.3,1.4,0.3,2.2
				c0,1.2-0.3,2.3-0.8,3.2c-0.5,0.9-1.3,1.5-2.2,1.9c-0.6,0.2-1.3,0.4-2,0.4C114.3,28.7,113.3,28.4,112.6,27.8 M113.4,19.7
				c-0.5,0.4-0.9,1-1.2,1.8c-0.2,0.5-0.2,1.1-0.2,1.8c0,1,0.2,1.9,0.5,2.5c0.4,0.6,0.9,1.1,1.5,1.4c0.4,0.2,0.9,0.3,1.5,0.3
				c0.8,0,1.5-0.2,2.1-0.6c0.5-0.4,0.9-1,1.2-1.8c0.2-0.5,0.2-1.1,0.2-1.8c0-1-0.2-1.8-0.5-2.5c-0.3-0.7-0.8-1.1-1.5-1.4
				c-0.4-0.2-0.9-0.3-1.5-0.3C114.6,19.1,113.9,19.3,113.4,19.7"/>
			<path id="XMLID_365_" class="st30" d="M135.2,28.6v-7.8c0-0.4-0.1-0.7-0.1-0.9c-0.1-0.2-0.2-0.4-0.4-0.5
				c-0.1-0.1-0.2-0.1-0.4-0.2c-0.2-0.1-0.4-0.1-0.7-0.1c-0.7,0-1.3,0.2-1.9,0.5c-0.5,0.3-1.1,0.6-1.5,1v8h-1.5v-7.8
				c0-0.4-0.1-0.7-0.2-0.9c-0.1-0.2-0.2-0.4-0.4-0.5c-0.1-0.1-0.2-0.1-0.4-0.2c-0.2-0.1-0.4-0.1-0.7-0.1c-0.7,0-1.3,0.2-1.9,0.5
				c-0.5,0.3-1.1,0.6-1.6,1v7.9h-1.5V17.9h0.7c0.1,0,0.1,0,0.2,0c0.1,0,0.1,0,0.2,0.1c0,0,0.1,0.1,0.1,0.1c0.1,0.1,0.1,0.1,0.1,0.2
				c0,0.1,0.1,0.2,0.1,0.3c0,0.2,0,0.3,0,0.6v0c0.4-0.3,0.9-0.6,1.4-0.8c0.7-0.3,1.5-0.6,2.4-0.6c0.4,0,0.9,0.1,1.3,0.2
				c0.4,0.2,0.7,0.4,1,0.8c0.1,0.1,0.2,0.3,0.3,0.5c0.5-0.4,1-0.7,1.6-1c0.7-0.3,1.5-0.5,2.4-0.5c0.4,0,0.8,0.1,1.2,0.2
				c0.4,0.1,0.7,0.3,0.9,0.6c0.2,0.2,0.3,0.4,0.4,0.7c0.1,0.4,0.2,0.8,0.2,1.2v8H135.2z"/>
			<path id="XMLID_362_" class="st30" d="M55.2,23.4l1.9-6.5l2,6.5H55.2z M60.2,15.8c-0.4-1.2-0.6-1.4-1.7-1.4h-2.7l-4.3,14.2h2.2
				l0.9-3.1h5.2l0.9,3.1h3.8L60.2,15.8z"/>
			<path id="XMLID_359_" class="st30" d="M34.1,26.7V16.2H36c0.9,0,1.6,0.7,1.6,1.6c0,0.3-0.1,0.6-0.4,1l-1.2,1.8
				c1.2,0.3,2.1,1.2,2.1,3c0,2.1-1.3,3-3,3H34.1z M38.7,20l0.7-1c1.5-2.2,0.5-4.5-2.4-4.5h-6.2v14.2h6C42,28.6,43.6,22.5,38.7,20"/>
			<path id="XMLID_356_" class="st30" d="M23.2,26.7h-1V16.2H24c0.9,0,1.6,0.7,1.6,1.6c0,0.3-0.1,0.6-0.4,1l-1.2,1.8
				c1.2,0.3,2.1,1.2,2.1,3C26.1,25.8,24.8,26.7,23.2,26.7 M26.7,20l0.7-1c1.5-2.2,0.5-4.5-2.4-4.5h-6.2v14.2h6
				C30,28.6,31.6,22.5,26.7,20"/>
			<path id="XMLID_355_" class="st30" d="M45,16.2c-0.5-1.6-0.8-1.8-1.7-1.8h-2.5l4.6,14.2h3.4l4.3-14.2h-2.2l-3.2,10.8L45,16.2z"/>
			<path id="XMLID_353_" class="st30" d="M109.4,18.9c-0.5,1.2-1.1,0.8-1.8,0.5c-0.4-0.2-0.9-0.3-1.6-0.3c-0.8,0-1.5,0.2-2.1,0.6
				c-0.6,0.4-1,1-1.2,1.7c-0.2,0.5-0.3,1.1-0.3,1.8c0,0.8,0.1,1.4,0.3,2c0.2,0.6,0.5,1,0.9,1.4c0.3,0.2,0.5,0.4,0.9,0.5
				c0.4,0.2,0.9,0.3,1.5,0.3c0.8,0,1.3-0.2,1.8-0.4c0.7-0.4,1.2-0.8,1.9,0.3c-0.3,0.3-0.7,0.6-1.2,0.8c-0.1,0-0.1,0.1-0.2,0.1
				c-0.6,0.2-1.3,0.4-2.3,0.4h0c-1.2,0-2.1-0.3-2.9-0.8c-0.8-0.6-1.4-1.4-1.7-2.4c-0.2-0.7-0.3-1.4-0.3-2.2c0-1.2,0.3-2.3,0.8-3.2
				c0.5-0.9,1.3-1.5,2.2-1.9c0.6-0.2,1.3-0.4,2-0.4C106.4,17.8,107.9,17.7,109.4,18.9"/>
			<path id="XMLID_350_" class="st30" d="M147.2,20.6c-0.2-0.5-0.4-0.9-0.6-1.2c-0.4-0.5-0.9-0.9-1.5-1.2c-0.6-0.2-1.3-0.4-2-0.4
				c-0.7,0-1.3,0.1-1.9,0.4c-0.9,0.4-1.6,1-2.1,1.9c-0.5,0.9-0.8,1.9-0.8,3.2c0,0.8,0.1,1.5,0.3,2.2c0.3,1,0.9,1.8,1.7,2.3
				c0.8,0.5,1.8,0.8,3,0.8h0c0.9,0,1.7-0.2,2.4-0.4c1-0.4,1.5-0.8,1.8-1.1c-0.7-1-1.1-0.6-1.9-0.2c-0.5,0.2-1.4,0.4-2.2,0.4
				c-0.6,0-1.1-0.1-1.6-0.3c-0.3-0.1-0.6-0.3-0.9-0.5c-0.4-0.3-0.7-0.8-0.9-1.3c-0.2-0.5-0.3-1.1-0.3-1.7h7.7v-0.2v-0.1
				c0-0.1,0-0.3,0-0.4C147.5,21.9,147.4,21.2,147.2,20.6 M139.9,22.3c0.1-0.5,0.2-0.9,0.3-1.3c0.3-0.7,0.7-1.1,1.2-1.5
				c0.5-0.3,1.1-0.5,1.7-0.5c0.4,0,0.9,0.1,1.2,0.2c0.3,0.1,0.5,0.2,0.7,0.4c0.3,0.3,0.6,0.6,0.7,1.1c0.2,0.4,0.3,0.9,0.3,1.6H139.9
				z"/>
			<path id="XMLID_349_" class="st30" d="M153.8,17.8c-0.8,0-1.5,0.2-2.1,0.6c-0.4,0.2-0.7,0.5-1,0.8c0-0.3,0-0.5,0-0.6
				c0-0.1,0-0.2-0.1-0.3c0-0.1-0.1-0.1-0.1-0.2c0,0-0.1-0.1-0.1-0.1c-0.1,0-0.1-0.1-0.2-0.1c-0.1,0-0.1,0-0.2,0h-0.7v10.7h1.5v-7.6
				c0.5-0.6,1-1,1.3-1.2c0,0,0,0,0,0c0.6-0.4,1.1-0.5,1.4-0.5c0.7-0.1,1.1-0.2,1.2-1.2C154.4,17.9,154.1,17.8,153.8,17.8"/>
		</g>
		<g>
			<path class="st69" d="M22.8,37.8l-0.2,0c-1.4-0.4-2.1-0.7-2.1-1.9c0-1.1,0.8-1.7,2.2-1.7c1.2,0,1.7,0.4,2.2,0.8l0.1,0.1h0.5v-0.6
				l-0.1-0.1c-0.7-0.5-1.4-0.9-2.7-0.9c-1.8,0-2.9,1-2.9,2.5c0,1.8,1.5,2.2,2.7,2.6l0.2,0.1c1.5,0.4,2.3,0.7,2.3,2
				c0,1.4-0.8,2.1-2.4,2.1c-1.4,0-2.1-0.4-2.6-0.8l-0.1-0.1h-0.5v0.6l0.1,0.1c0.7,0.5,1.5,0.9,3.1,0.9c2,0,3.2-1,3.2-2.8
				C25.9,38.7,24.3,38.2,22.8,37.8z"/>
			<path class="st69" d="M29.8,35.8c-1.9,0-3.2,1.6-3.2,3.8c0,2.4,1.3,3.8,3.4,3.8c1.3,0,2.2-0.5,2.6-0.9l0.1-0.1v-0.5h-0.5L32,42
				c-0.1,0.2-0.7,0.7-2.1,0.7c-2.2,0-2.7-1.6-2.7-3l5.4,0l0-0.2c0,0,0-0.1,0-0.2C32.8,37.1,31.7,35.8,29.8,35.8z M27.3,39
				c0.2-1.5,1.1-2.5,2.5-2.5c1.4,0,2.2,0.8,2.2,2.5H27.3z"/>
			<path class="st69" d="M38.8,36.5L38.8,36.5c-0.6-0.4-1.3-0.7-2.3-0.7c-0.8,0-3.2,0.3-3.2,3.9c0,3.4,2.2,3.7,2.9,3.7
				c1,0,1.9-0.4,2.6-1.1v0.8c0,1.5-1.6,1.7-2.3,1.7c-1.1,0-1.9-0.3-2.2-0.6l-0.1-0.1h-0.5v0.6l0.1,0.1c0.3,0.2,1.2,0.7,2.7,0.7
				c1.4,0,3-0.6,3-2.4v-7.3h-0.3C38.8,35.9,38.8,36.3,38.8,36.5z M36.5,36.5c1,0,1.6,0.3,2.3,1v3.7c-0.7,1-1.5,1.5-2.5,1.5
				c-0.8,0-2.2-0.4-2.2-3C34.1,36.9,35.6,36.5,36.5,36.5z"/>
			<path class="st69" d="M46.1,41.4c-1,0.8-2,1.3-2.9,1.3c-0.8,0-1.3-0.2-1.3-1.3v-5.5h-0.8v5.6c0,1.3,0.7,2,2,2
				c1.2,0,2.2-0.6,2.9-1.1v0.5c0,0.1,0,0.6,0.4,0.6h0.3v-7.5h-0.8V41.4z"/>
			<path class="st69" d="M51.9,35.9l-0.2,0c0,0-0.1,0-0.4,0c-0.8,0-1.5,0.3-2.1,1.1v-0.4c0-0.2,0-0.6-0.4-0.6h-0.3v7.5h0.8V38
				c0.7-1,1.4-1.4,2.1-1.4c0.2,0,0.3,0,0.3,0l0.3,0V35.9z"/>
			<path class="st69" d="M55.3,35.8c-2.1,0-3.4,1.5-3.4,3.8s1.3,3.8,3.4,3.8c2.1,0,3.4-1.4,3.4-3.8C58.7,37.3,57.4,35.8,55.3,35.8z
				 M55.3,36.5c1.6,0,2.6,1.1,2.6,3.1c0,2-1,3.1-2.6,3.1c-1.6,0-2.6-1.1-2.6-3.1C52.7,37.7,53.7,36.5,55.3,36.5z"/>
			<path class="st69" d="M61.8,39.1c-1.4-0.2-1.8-0.5-1.8-1.3c0-1.1,0.9-1.3,1.7-1.3c0.9,0,1.4,0.3,1.6,0.5l0.1,0.1H64v-0.6
				l-0.1-0.1c-0.4-0.3-1.2-0.7-2.1-0.7c-1.5,0-2.5,0.8-2.5,2c0,1.4,1.2,1.8,2.3,2c1.4,0.2,1.9,0.6,1.9,1.3c0,1.1-0.6,1.5-1.9,1.5
				c-0.8,0-1.5-0.2-1.9-0.6L59.6,42h-0.5v0.6l0.1,0.1c0.6,0.5,1.4,0.8,2.4,0.8c1.8,0,2.6-0.8,2.6-2.3C64.3,39.7,63.1,39.3,61.8,39.1
				z"/>
			<path class="st69" d="M72.7,37.8l-0.2,0c-1.4-0.4-2.1-0.7-2.1-1.9c0-1.1,0.8-1.7,2.2-1.7c1.2,0,1.7,0.4,2.2,0.8l0.1,0.1h0.5v-0.6
				l-0.1-0.1c-0.7-0.5-1.4-0.9-2.7-0.9c-1.8,0-2.9,1-2.9,2.5c0,1.8,1.5,2.2,2.7,2.6l0.2,0.1c1.5,0.4,2.3,0.7,2.3,2
				c0,1.4-0.8,2.1-2.4,2.1c-1.4,0-2.1-0.4-2.6-0.8l-0.1-0.1h-0.5v0.6l0.1,0.1c0.7,0.5,1.5,0.9,3.1,0.9c2,0,3.2-1,3.2-2.8
				C75.7,38.7,74.1,38.2,72.7,37.8z"/>
			<path class="st69" d="M79.6,35.8c-1.3,0-2.1,0.4-2.6,0.7l-0.1,0.1v0.6h0.5l0.1-0.1c0.4-0.4,1.2-0.6,2.1-0.6
				c1.2,0,1.6,0.4,1.6,1.4v1.2c-0.5-0.1-1.1-0.2-1.7-0.2c-1.9,0-3,0.8-3,2.2c0,1.4,0.9,2.2,2.4,2.2c1.1,0,1.8-0.4,2.4-0.9v0.3
				c0,0.1,0,0.6,0.4,0.6H82v-5.4C82,36.5,81.2,35.8,79.6,35.8z M81.2,39.8v1.6c-0.6,0.7-1.2,1.2-2.3,1.2c-1.1,0-1.7-0.5-1.7-1.5
				c0-1.3,1.4-1.5,2.3-1.5C80.1,39.6,80.7,39.7,81.2,39.8z"/>
			<path class="st69" d="M83.9,33.5h-0.3v9.9h0.8V34C84.4,33.8,84.4,33.5,83.9,33.5z"/>
			<path class="st69" d="M90.9,41.4c-1,0.8-2,1.3-2.9,1.3c-0.8,0-1.3-0.2-1.3-1.3v-5.5H86v5.6c0,1.3,0.7,2,2,2
				c1.2,0,2.2-0.6,2.9-1.1v0.5c0,0.1,0,0.6,0.4,0.6h0.3v-7.5h-0.8V41.4z"/>
			<path class="st69" d="M98.6,33.5h-0.3v3.1c-0.6-0.5-1.3-0.7-2.3-0.7c-0.8,0-3.2,0.3-3.2,3.9c0,3.4,2.2,3.7,2.9,3.7
				c1,0,1.9-0.4,2.6-1.1v0.4c0,0.2,0,0.6,0.4,0.6H99V34C99,33.8,99,33.5,98.6,33.5z M95.7,42.6c-0.8,0-2.2-0.4-2.2-3
				c0-2.7,1.6-3.1,2.5-3.1c1,0,1.6,0.3,2.3,1v3.7C97.6,42.2,96.8,42.6,95.7,42.6z"/>
		</g>
	</g>
</g>
<g id="Capa_2" class="st70">
</g>
<g id="Capa_8" class="st70">
</g>
<g id="Capa_3" class="st70">
</g>
</svg>
