<?xml version="1.0" encoding="utf-8"?>
<!-- Generator: Adobe Illustrator 21.0.2, SVG Export Plug-In . SVG Version: 6.00 Build 0)  -->
<svg version="1.1" xmlns="http://www.w3.org/2000/svg" xmlns:xlink="http://www.w3.org/1999/xlink" x="0px" y="0px"
	 viewBox="0 0 112 38.4" style="enable-background:new 0 0 112 38.4;" xml:space="preserve">
<style type="text/css">
	.st0{fill:#F9F9F9;}
	.st1{fill:#FAFAFA;}
	.st2{fill:#FFFFFF;stroke:#BDDCEE;stroke-width:0.5;stroke-miterlimit:10;}
	.st3{fill:#191819;}
	.st4{fill:#1966AA;}
	.st5{fill:#FFFFFF;stroke:#DADADA;stroke-width:0.25;stroke-miterlimit:10;}
	.st6{clip-path:url(#SVGID_2_);}
	.st7{clip-path:url(#SVGID_4_);fill:#73CB6C;}
	.st8{clip-path:url(#SVGID_6_);}
	.st9{clip-path:url(#SVGID_8_);fill:#73CB6C;}
	.st10{clip-path:url(#SVGID_10_);}
	.st11{clip-path:url(#SVGID_12_);fill:#73CB6C;}
	.st12{clip-path:url(#SVGID_14_);}
	.st13{clip-path:url(#SVGID_16_);fill:#6BBE7E;}
	.st14{fill:none;stroke:#DADADA;stroke-width:0.25;stroke-miterlimit:10;}
	.st15{clip-path:url(#SVGID_18_);}
	.st16{clip-path:url(#SVGID_22_);}
	.st17{clip-path:url(#SVGID_26_);}
	.st18{clip-path:url(#SVGID_30_);}
	.st19{clip-path:url(#SVGID_34_);}
	.st20{clip-path:url(#SVGID_38_);}
	.st21{clip-path:url(#SVGID_42_);}
	.st22{clip-path:url(#SVGID_46_);}
	.st23{clip-path:url(#SVGID_50_);}
	.st24{fill:#134B95;}
	.st25{fill:#08B25C;}
	.st26{fill:#1A1A1A;}
	.st27{fill:#094FA4;}
	.st28{fill:#DADADA;}
	.st29{clip-path:url(#SVGID_54_);}
	.st30{fill:#2C4C92;}
	.st31{fill:#3C67A9;}
	.st32{fill:#558FC9;}
	.st33{fill:#78AED7;}
	.st34{fill:#9AC5E3;}
	.st35{fill:#BDDCEE;}
	.st36{fill:#2C4C92;stroke:#2C4C92;stroke-width:0.5;stroke-miterlimit:10;}
	.st37{clip-path:url(#SVGID_58_);}
	.st38{clip-path:url(#SVGID_60_);fill:#73CB6C;}
	.st39{clip-path:url(#SVGID_62_);}
	.st40{clip-path:url(#SVGID_64_);fill:#73CB6C;}
	.st41{clip-path:url(#SVGID_66_);}
	.st42{clip-path:url(#SVGID_68_);fill:#73CB6C;}
	.st43{clip-path:url(#SVGID_70_);}
	.st44{clip-path:url(#SVGID_72_);fill:#6BBE7E;}
	.st45{clip-path:url(#SVGID_74_);}
	.st46{clip-path:url(#SVGID_76_);fill:#73CB6C;}
	.st47{clip-path:url(#SVGID_78_);}
	.st48{clip-path:url(#SVGID_80_);fill:#73CB6C;}
	.st49{clip-path:url(#SVGID_82_);}
	.st50{clip-path:url(#SVGID_84_);fill:#73CB6C;}
	.st51{clip-path:url(#SVGID_86_);}
	.st52{clip-path:url(#SVGID_88_);fill:#6BBE7E;}
	.st53{clip-path:url(#SVGID_90_);}
	.st54{clip-path:url(#SVGID_92_);fill:#73CB6C;}
	.st55{clip-path:url(#SVGID_94_);}
	.st56{clip-path:url(#SVGID_96_);fill:#73CB6C;}
	.st57{clip-path:url(#SVGID_98_);}
	.st58{clip-path:url(#SVGID_100_);fill:#73CB6C;}
	.st59{clip-path:url(#SVGID_102_);}
	.st60{clip-path:url(#SVGID_104_);fill:#6BBE7E;}
	.st61{clip-path:url(#SVGID_106_);}
	.st62{clip-path:url(#SVGID_108_);fill:#73CB6C;}
	.st63{clip-path:url(#SVGID_110_);}
	.st64{clip-path:url(#SVGID_112_);fill:#73CB6C;}
	.st65{clip-path:url(#SVGID_114_);}
	.st66{clip-path:url(#SVGID_116_);fill:#73CB6C;}
	.st67{clip-path:url(#SVGID_118_);}
	.st68{clip-path:url(#SVGID_120_);fill:#6BBE7E;}
	.st69{fill:#2F509F;}
	.st70{display:none;}
	.st71{display:inline;}
	.st72{opacity:0.1;fill:#6098C9;}
</style>
<g id="BG">
</g>
<g id="content">
</g>
<g id="footer">
</g>
<g id="title">
</g>
<g id="header">
</g>
<g id="BBVA">
	<g>
		<defs>
			<path id="SVGID_105_" d="M36.7,13.3c-3.2,3.7-5.8,8.7-6.9,8.6c-1.1-0.1-1.4-2.7-3.6-5.7c-2.5-3.3-6.3-0.2-8.3,3.5
				c-2.1,3.7-2.6,4.6-3.5,4.6c-0.9,0-2.8-3.3-4-5.3C5.8,11.5,0.7,9,1,17.3c0.3,6.8,5.7,20,10.8,20c7.2,0,8.6-8.6,10.3-8.6
				c1.7,0,3.5,7.4,7.7,7.4c4.2,0,10.7-10.2,12.9-15.9C44.8,14.8,39.9,9.5,36.7,13.3z M49,14.5c-1.6,3.5-2,6.8-1.8,10.8
				c0.1,2.8,0.2,14.6,5.7,11.5c3.3-1.9,3.6-9.7,3.7-13.5c0-3.3-0.3-6.8-1.3-8.9C53.7,11.3,50.4,11.3,49,14.5z M103.6,31.2
				c-3.8,0.3-5.5-0.5-6.6-1.7c-0.6-0.7-0.2-1.2,0-1.3c0.3-0.1,1-0.2,1-0.2c3.1-0.2,4.5-0.4,6.6-0.8c3.9-0.9,7.4-4.4,6.1-8.9
				c-1.3-4.5-6.5-7-11.8-6c-5.6,1-8.2,5.1-9.5,9.2c-1.4,4.1-0.6,8.6,2.1,12c3.2,4.2,10.5,4.8,15.2,2.4c1.6-0.8,2.8-2,2.5-3.7
				C108.9,30.6,107.9,30.8,103.6,31.2z M97.4,22.7c-0.5,0-0.6-0.3-0.5-0.5c0.3-1,0.8-1.8,2.2-2.4c1.2-0.6,2.5-0.7,3.9-0.5
				c1.1,0.2,2.3,1.2,1.1,2C103.1,22,99.2,22.4,97.4,22.7L97.4,22.7z"/>
		</defs>
		<clipPath id="SVGID_2_">
			<use xlink:href="#SVGID_105_"  style="overflow:visible;"/>
		</clipPath>
		<g class="st6">
			<defs>
				<rect id="SVGID_107_" x="-17.9" y="-16.2" width="1200" height="1277"/>
			</defs>
			<clipPath id="SVGID_4_">
				<use xlink:href="#SVGID_107_"  style="overflow:visible;"/>
			</clipPath>
			<rect x="-4" y="7" class="st7" width="120.1" height="35.3"/>
		</g>
	</g>
	<g>
		<defs>
			<path id="SVGID_109_" d="M48.8,3.6c0,2.2,2.3,4.7,4.5,4.5c2.8-0.2,3.5-4,1.8-6C53.5,0.3,48.8,0.4,48.8,3.6"/>
		</defs>
		<clipPath id="SVGID_6_">
			<use xlink:href="#SVGID_109_"  style="overflow:visible;"/>
		</clipPath>
		<g class="st8">
			<defs>
				<rect id="SVGID_111_" x="-17.9" y="-16.2" width="1200" height="1277"/>
			</defs>
			<clipPath id="SVGID_8_">
				<use xlink:href="#SVGID_111_"  style="overflow:visible;"/>
			</clipPath>
			<rect x="43.8" y="-4.1" class="st9" width="17.3" height="17.3"/>
		</g>
	</g>
	<g>
		<defs>
			<path id="SVGID_113_" d="M84.7,13.9c-1.2-1.6-3.9-1.8-5.6-1.8c-3.9-0.1-6.8,0.8-8.9,1.4c-0.6,0-0.8-0.3-0.8-0.6
				c0.7-2.2,2.2-8.3-0.9-11.1c-2.3-2.1-4.7,0.4-5.1,2.2c-0.3,1.1-1.1,3.1-1.7,9.4c-0.6,6.3-1.5,12.7,0.1,16.8C62.9,33,65,37,71.2,37
				c7.7,0,11.6-4.8,10.7-8c0,0,0,0,0,0c-0.2-0.4,0.2-0.7,0.2-0.7c2.9-2.1,2.7-5.6,2-7.2c0,0,0,0,0,0c-0.1-0.5,0.2-0.8,0.2-0.8h0
				C85.7,19.1,86.8,16.6,84.7,13.9"/>
		</defs>
		<clipPath id="SVGID_10_">
			<use xlink:href="#SVGID_113_"  style="overflow:visible;"/>
		</clipPath>
		<g class="st10">
			<defs>
				<rect id="SVGID_115_" x="-17.9" y="-16.2" width="1200" height="1277"/>
			</defs>
			<clipPath id="SVGID_12_">
				<use xlink:href="#SVGID_115_"  style="overflow:visible;"/>
			</clipPath>
			<rect x="55.9" y="-4.1" class="st11" width="35" height="46.1"/>
		</g>
	</g>
	<g>
		<defs>
			<path id="SVGID_117_" d="M84.7,13.9c-1.2-1.6-3.9-1.8-5.6-1.8c-0.9,0-1.7,0-2.5,0.1c-1.3,1.5-1.4,2.5-1.4,3.3
				c0,1.1,1.4,2.9,1.1,3.9c-0.3,1-2.2,1.9-2.7,4.1c-0.3,1.2,1.6,2.2,1.1,4.2c-0.3,1.5-2.2,2.8-2.5,4.3c-0.3,1.6,1.7,3.2,1.4,4.9
				c6-0.9,9-5,8.2-7.9c0,0,0,0,0,0c-0.2-0.4,0.2-0.7,0.2-0.7c2.9-2.1,2.7-5.6,2-7.2c0,0,0,0,0,0c-0.1-0.5,0.2-0.8,0.2-0.8h0
				C85.6,19.1,86.7,16.6,84.7,13.9"/>
		</defs>
		<clipPath id="SVGID_14_">
			<use xlink:href="#SVGID_117_"  style="overflow:visible;"/>
		</clipPath>
		<g class="st12">
			<defs>
				<rect id="SVGID_119_" x="-17.9" y="-16.2" width="1200" height="1277"/>
			</defs>
			<clipPath id="SVGID_16_">
				<use xlink:href="#SVGID_119_"  style="overflow:visible;"/>
			</clipPath>
			<rect x="67.2" y="7" class="st13" width="23.6" height="34.8"/>
		</g>
	</g>
</g>
<g id="SALUD">
</g>
<g id="Capa_2" class="st70">
</g>
<g id="Capa_8" class="st70">
</g>
<g id="Capa_3" class="st70">
</g>
</svg>
